<svg aria-hidden="true" style="position: absolute; width: 0; height: 0; overflow: hidden;" version="1.1" xmlns="http://www.w3.org/2000/svg" xmlns:xlink="http://www.w3.org/1999/xlink">
<defs>
<symbol id="icon-IMAGE-2-1" viewBox="0 0 168 32">
<path d="M0 0h167.68v32h-167.68z"></path>
</symbol>
<symbol id="icon-Frame-5-1" viewBox="0 0 32 32">
<path fill="#fff" style="fill: var(--color1, #fff)" d="M16 0c-8.835 0.035-16 7.182-16 16 0 8.837 7.163 16 16 16s16-7.163 16-16c0-8.837-7.163-16-16-16v0zM16.658 21.725v-5.050h6.4c-0.027 2.132-0.297 4.189-0.784 6.159l0.039-0.185c-1.671-0.502-3.605-0.834-5.603-0.923l-0.052-0.002zM20.035 30.080c1.455-1.587 2.56-3.52 3.175-5.66l0.025-0.1c1.744 0.587 3.024 1.21 3.61 1.547-1.789 1.974-4.096 3.446-6.707 4.205l-0.102 0.026v-0.018zM16.659 30.595v-7.555c1.741 0.107 3.52 0.39 5.28 0.89-1.174 3.768-3.149 6.221-5.28 6.666zM23.13 7.45c-0.653-2.15-1.716-4.005-3.107-5.561l0.012 0.014c2.601 0.753 4.822 2.129 6.572 3.959l0.005 0.005c-1.12 0.656-2.275 1.19-3.483 1.6v-0.018zM23.058 15.325h-6.4v-5.405c1.902-0.035 3.77-0.267 5.582-0.8 0.498 1.955 0.765 4.035 0.818 6.222v-0.018zM16.658 8.57v-7.165c2.062 0.426 4 2.79 5.192 6.435-1.553 0.451-3.338 0.71-5.183 0.71-0.003 0-0.006 0-0.009 0h0v0.019zM30.65 16.675c-0.138 3.085-1.212 5.895-2.943 8.181l0.026-0.037c-0.568-0.339-2.043-1.086-4.142-1.814 0.499-1.955 0.747-4.090 0.819-6.33h6.24zM30.65 15.325h-6.224c-0.020-2.347-0.343-4.61-0.931-6.763l0.043 0.186c1.333-0.48 2.667-1.104 3.965-1.814 1.854 2.283 3.020 5.19 3.146 8.364l0.001 0.028zM8.373 22.88c-1.422 0.48-2.79 1.138-4.088 1.938-1.716-2.245-2.803-5.054-2.951-8.109l-0.001-0.034h6.224c0.088 2.205 0.354 4.267 0.8 6.205h0.016zM1.35 15.325c0.133-3.213 1.297-6.132 3.169-8.457l-0.022 0.028c0.712 0.392 2.098 1.067 4.018 1.707-0.545 2.015-0.88 4.337-0.924 6.729l-0 0.027h-6.24v-0.035zM8.747 24.195c0.611 2.297 1.72 4.282 3.21 5.915l-0.010-0.011c-2.707-0.788-5.008-2.26-6.781-4.22l-0.011-0.012c1.026-0.625 2.212-1.19 3.457-1.63l0.135-0.042zM8.923 16.675h6.421v5.014c-1.938 0.035-3.84 0.301-5.69 0.8-0.423-1.736-0.68-3.738-0.71-5.794l-0-0.020h-0.018zM15.342 23.005v7.59c-2.17-0.426-4.142-2.968-5.333-6.826 1.589-0.447 3.42-0.724 5.309-0.764l0.024-0zM15.342 9.885v5.44h-6.4c0.035-2.224 0.355-4.392 0.853-6.365 1.832 0.533 3.715 0.818 5.547 0.925zM5.422 5.867c1.747-1.817 3.957-3.176 6.44-3.887l0.102-0.025c-1.245 1.28-2.312 3.112-3.058 5.424-1.372-0.476-2.523-0.981-3.627-1.563l0.142 0.068v-0.018zM15.342 1.422v7.11c-1.707-0.106-3.45-0.355-5.155-0.853 1.173-3.52 3.093-5.85 5.155-6.275v0.016z"></path>
</symbol>
<symbol id="icon-Frame-4-1" viewBox="0 0 216 32">
<path fill="#fff" style="fill: var(--color1, #fff)" d="M9.986 16.523c-0.066-0.002-0.143-0.003-0.22-0.003-0.283 0-0.561 0.017-0.835 0.049l0.033-0.003c-0.584 0.056-1.121 0.186-1.626 0.38l0.042-0.014c-0.473 0.177-0.881 0.418-1.238 0.719l0.006-0.005c-0.33 0.286-0.563 0.61-0.688 0.952-0.066 0.172-0.104 0.371-0.104 0.579 0 0.165 0.024 0.325 0.069 0.476l-0.003-0.012c0.245 1.425 2.709 2.627 4.99 2.663 0.233 0.003 0.468-0.006 0.7-0.029 2.468-0.247 3.114-1.815 2.707-3.356-0.458-1.74-2.469-2.353-3.834-2.397zM12.404 20.644c-0.104 0.096-0.248 0.173-0.419 0.223-0.132 0.039-0.284 0.061-0.441 0.061-0.037 0-0.073-0.001-0.109-0.004l0.005 0c-0.328-0.016-0.633-0.109-0.855-0.259s-0.343-0.346-0.339-0.549c-0-0.003-0-0.007-0-0.011 0-0.292 0.093-0.562 0.251-0.782l-0.003 0.004c0.055-0.075 0.087-0.169 0.087-0.271 0-0.083-0.022-0.161-0.060-0.228l0.001 0.002c-0.086-0.163-0.266-0.301-0.504-0.389-0.211-0.079-0.455-0.125-0.71-0.125-0.096 0-0.191 0.007-0.284 0.019l0.011-0.001c-0.327 0.039-0.615 0.156-0.803 0.325-0.117 0.115-0.216 0.248-0.29 0.396l-0.004 0.009c-0.013 0.025-0.024 0.044-0.035 0.062l0.003-0.005c-0.081 0.132-0.225 0.218-0.389 0.218-0.008 0-0.016-0-0.023-0.001l0.001 0c-0.044-0.004-0.085-0.017-0.121-0.037l0.002 0.001c-0.029-0.016-0.052-0.040-0.066-0.070l-0-0.001c-0.020-0.073-0.032-0.157-0.032-0.244 0-0.168 0.043-0.325 0.119-0.462l-0.003 0.005c0.119-0.227 0.324-0.432 0.598-0.6 0.239-0.147 0.528-0.258 0.848-0.325 0.216-0.047 0.464-0.074 0.718-0.074 0.096 0 0.192 0.004 0.286 0.011l-0.012-0.001c0.351 0.026 0.687 0.104 0.977 0.228s0.529 0.29 0.693 0.483c0.158 0.233 0.221 0.485 0.186 0.736s-0.169 0.493-0.39 0.706c-0.028 0.036-0.054 0.070-0.075 0.1-0.072 0.070-0.119 0.166-0.127 0.272l-0 0.001c-0 0.002-0 0.005-0 0.008 0 0.104 0.039 0.199 0.104 0.27l-0-0c0.068 0.054 0.149 0.096 0.237 0.122l0.005 0.001c0.095 0.028 0.199 0.041 0.305 0.040 0.101 0 0.201-0.009 0.299-0.024 0.126-0.017 0.258-0.035 0.337 0.023 0.026 0.017 0.043 0.041 0.047 0.066 0 0.003 0.001 0.006 0.001 0.010 0 0.024-0.010 0.045-0.026 0.060l-0 0z"></path>
<path fill="#fff" style="fill: var(--color1, #fff)" d="M41.529 23.568c0.515-0.806 0.813-1.659 0.882-2.524 0-1.064-0.977-1.505-1.6-1.505-0.018-0.041-0.141-0.318-0.311-0.652-0.111-0.219-0.225-0.405-0.352-0.582l0.009 0.012c0.509-0.434 0.724-0.973 0.6-1.502-0.102-0.408-0.417-0.785-0.897-1.073-0.912-0.477-2-0.809-3.169-0.967-0.176-0.030-0.756-0.128-0.807-0.138-0.004-0.020-0.043-1.171-0.078-1.666-0.019-0.535-0.149-1.036-0.366-1.487l0.010 0.022c-0.275-0.683-0.844-1.309-1.647-1.811 2.010-1.283 3.265-2.697 3.262-3.909-0.006-2.332-4.657-3.037-10.389-1.576l-1.214 0.317c-0.005-0.003-2.196-1.327-2.229-1.344-6.535-3.51-26.966 10.474-20.434 13.871l1.427 0.744c-0.385 0.637-0.521 1.321-0.396 1.996 0.194 0.982 0.981 1.883 2.205 2.523 1.187 0.665 2.723 1.046 4.326 1.072 2.543 3.607 8.35 5.821 15.161 5.945 7.305 0.133 13.437-1.977 16.007-5.769zM43.029 19.298c0.625 0.498 0.948 1.116 0.91 1.746-0.066 0.982-0.4 1.95-0.986 2.864l-0.014 0.022c-1.325 1.965-3.639 3.617-6.602 4.71-3.082 1.105-6.595 1.674-10.162 1.643-0.232 0-0.466-0.003-0.698-0.007-3.52-0.045-6.956-0.67-9.951-1.811-2.638-1.019-4.771-2.465-6.17-4.178-1.612-0.154-3.117-0.593-4.333-1.264-1.513-0.796-2.48-1.916-2.712-3.133-0.032-0.175-0.050-0.376-0.050-0.581 0-0.427 0.079-0.836 0.222-1.212l-0.008 0.023-0.663-0.346c-0.536-0.285-0.972-0.636-1.281-1.029s-0.483-0.822-0.514-1.258c-0.054-0.906 0.2-1.81 0.746-2.653 1.36-2.29 4.489-5.018 8.372-7.296 1.733-1.037 3.655-1.946 5.728-2.71 1.728-0.681 3.714-1.076 5.763-1.144 1.322-0.022 2.609 0.261 3.613 0.792 0.057 0.030 0.915 0.548 1.565 0.941l0.285-0.074c1.82-0.501 3.915-0.803 6.076-0.834l0.018-0c3.889 0 6.406 1.286 6.411 3.277 0.003 1.228-0.976 2.605-2.778 3.938 0.49 0.468 0.861 0.979 1.1 1.517 0.256 0.549 0.396 1.117 0.417 1.69 0.017 0.246 0.035 0.64 0.050 0.989 1.33 0.208 2.559 0.61 3.583 1.174 0.694 0.424 1.149 0.975 1.299 1.571 0.151 0.588 0.003 1.191-0.422 1.725 0.038 0.067 0.077 0.14 0.116 0.216 0.035 0.067 0.067 0.132 0.096 0.194 0.372 0.121 0.695 0.29 0.983 0.505l-0.009-0.006z"></path>
<path fill="#fff" style="fill: var(--color1, #fff)" d="M38.397 18.134c0.248-0.144 0.441-0.32 0.566-0.515s0.178-0.405 0.156-0.614c-0.049-0.21-0.208-0.407-0.454-0.556-0.72-0.368-1.577-0.621-2.494-0.736-0.419-0.073-0.703-0.121-1.009-0.183-0.545-0.112-0.813-0.201-0.874-0.84-0.026-0.279-0.105-1.251-0.133-1.654-0.049-0.705-0.185-1.667-1.143-2.064-0.242-0.099-0.523-0.158-0.817-0.163l-0.002-0c-0.027-0.001-0.059-0.002-0.092-0.002-0.139 0-0.276 0.012-0.409 0.034l0.014-0.002c-0.486 0.069-0.929 0.225-1.273 0.448-0.446 0.25-0.963 0.444-1.51 0.556l-0.035 0.006c-0.418 0.090-0.898 0.141-1.39 0.141-0.138 0-0.275-0.004-0.411-0.012l0.019 0.001c-0.67-0.017-1.38-0.082-2.195-0.112l-0.476-0.017c-1.053 0.020-2.058 0.272-2.835 0.71s-1.271 1.034-1.395 1.68c-0.466 2 1.857 3.033 2.528 3.64 0.104 0.078 0.168 0.171 0.184 0.272-0.017 0.111-0.103 0.214-0.239 0.286-0.928 0.645-1.58 1.424-1.896 2.263-0.137 0.347-0.216 0.749-0.216 1.169 0 0.5 0.112 0.974 0.313 1.397l-0.008-0.020c0.088 0.2 0.202 0.395 0.34 0.584 1.695 2.469 6.953 3.619 12.091 2.574 0.782-0.159 1.437-0.337 2.075-0.55l-0.123 0.036c1.126-0.347 2.139-0.819 2.988-1.392 1.325-0.829 2.196-1.893 2.488-3.043 0.156-0.637-0.072-0.882-0.381-1.002-0.164-0.057-0.354-0.089-0.551-0.089-0.059 0-0.117 0.003-0.175 0.009l0.007-0.001c-0.152-0.554-0.386-1.038-0.693-1.467l0.009 0.014-0.552-0.784zM29.979 8.595c0.083 0.012 0.136-0.076 0.061-0.102-1.18-0.383-2.539-0.615-3.948-0.64l-0.013-0c-0.001 0-0.002 0-0.003 0-0.013 0-0.025-0.002-0.036-0.006l0.001 0c-0.010-0.004-0.019-0.010-0.026-0.018l-0-0c-0.005-0.005-0.008-0.013-0.008-0.021 0-0.001 0-0.003 0-0.004v0c0.002-0.009 0.007-0.017 0.015-0.022l0-0c0.215-0.173 0.465-0.328 0.745-0.46 0.011-0.005 0.020-0.013 0.026-0.024l0-0c0.002-0.004 0.003-0.008 0.003-0.013 0-0.006-0.002-0.011-0.005-0.016l0 0c-0.007-0.010-0.017-0.018-0.029-0.022l-0-0c-0.012-0.004-0.025-0.007-0.039-0.007-0.002 0-0.004 0-0.006 0h0c-1.692 0.102-3.318 0.456-4.739 1.030-0.012 0.005-0.026 0.008-0.040 0.008-0 0-0.001 0-0.001 0h0c-0.015-0-0.029-0.003-0.041-0.009l0.001 0c-0.011-0.004-0.019-0.011-0.026-0.020l-0-0c-0.003-0.005-0.006-0.011-0.006-0.017 0-0.003 0-0.006 0.001-0.009l-0 0c0.115-0.264 0.284-0.517 0.502-0.754 0.006-0.005 0.009-0.013 0.009-0.021 0-0.002-0-0.003-0-0.005l0 0c-0.003-0.011-0.010-0.020-0.020-0.025l-0-0c-0.011-0.007-0.024-0.011-0.039-0.012l-0-0c-0.003-0-0.007-0.001-0.011-0.001-0.012 0-0.023 0.002-0.033 0.005l0.001-0c-2.053 0.695-3.883 1.616-5.4 2.717-0.011 0.009-0.017 0.019-0.017 0.030s0.007 0.022 0.019 0.030c0.016 0.009 0.035 0.015 0.055 0.015 0.015 0 0.030-0.003 0.044-0.009l-0.001 0c1.757-0.757 3.736-1.296 5.828-1.586 1.091-0.162 2.351-0.255 3.633-0.255 1.251 0 2.48 0.088 3.684 0.259l-0.138-0.016zM23.932 5.023s-1.778-1.271-2.315-1.364c-3.304-0.549-10.439 2.48-14.994 6.484-1.844 1.62-4.483 4.489-3.221 5.964 0.449 0.331 0.954 0.631 1.508 0.895 0.845-0.731 2.117-1.231 3.549-1.394 1.796-3.097 4.95-5.827 9.11-7.885 1.721-0.894 3.822-1.805 5.987-2.582l0.377-0.118z"></path>
<path fill="#000" style="fill: var(--color2, #000)" d="M12.285 20.589c0.026 0.020 0.041 0.043 0.045 0.067 0 0.003 0.001 0.007 0.001 0.010 0 0.024-0.010 0.046-0.026 0.061v0c-0.095 0.095-0.233 0.173-0.397 0.223s-0.346 0.072-0.528 0.061c-0.325-0.022-0.624-0.118-0.837-0.271s-0.324-0.349-0.311-0.549c-0-0.004-0-0.008-0-0.013 0-0.294 0.089-0.566 0.241-0.793l-0.003 0.005c0.054-0.077 0.086-0.172 0.086-0.275 0-0.082-0.021-0.16-0.057-0.228l0.001 0.003c-0.083-0.164-0.255-0.305-0.488-0.4-0.132-0.055-0.286-0.095-0.446-0.113l-0.008-0.001c-0.068-0.008-0.147-0.013-0.227-0.013-0.092 0-0.183 0.006-0.273 0.018l0.010-0.001c-0.157 0.020-0.307 0.061-0.44 0.117s-0.245 0.13-0.331 0.213c-0.123 0.13-0.218 0.268-0.284 0.412-0.012 0.026-0.022 0.045-0.030 0.058-0.075 0.133-0.215 0.222-0.377 0.222-0.007 0-0.013-0-0.019-0l0.001 0c-0.076-0.004-0.142-0.046-0.178-0.108l-0.001-0.001c-0.020-0.074-0.031-0.159-0.031-0.247 0-0.168 0.041-0.327 0.115-0.466l-0.003 0.006c0.113-0.229 0.311-0.439 0.575-0.614 0.231-0.15 0.502-0.264 0.791-0.326l0.016-0.003c0.307-0.069 0.637-0.092 0.961-0.066 0.343 0.029 0.67 0.11 0.95 0.236s0.505 0.293 0.656 0.485c0.151 0.237 0.213 0.493 0.179 0.746s-0.163 0.5-0.375 0.718c-0.027 0.037-0.052 0.071-0.073 0.102-0.070 0.073-0.115 0.17-0.122 0.277l-0 0.001c-0 0.002-0 0.005-0 0.008 0 0.104 0.038 0.2 0.1 0.273l-0.001-0.001c0.059 0.052 0.137 0.095 0.229 0.124s0.194 0.043 0.297 0.041c0.098-0.001 0.194-0.009 0.288-0.025 0.121-0.017 0.247-0.035 0.324 0.023zM42.345 21.053c-0.068 0.863-0.363 1.713-0.875 2.518-2.553 3.784-8.645 5.89-15.902 5.757-6.766-0.125-12.536-2.333-15.062-5.933-1.595-0.027-3.12-0.407-4.298-1.070-1.217-0.64-1.998-1.539-2.19-2.518-0.124-0.675 0.011-1.356 0.394-1.992l-1.418-0.743c-6.49-3.389 13.808-17.345 20.301-13.842 0.032 0.017 2.208 1.338 2.214 1.341l1.206-0.317c5.694-1.458 10.315-0.754 10.32 1.573 0.003 1.211-1.244 2.621-3.241 3.901 0.798 0.502 1.364 1.126 1.636 1.808 0.221 0.476 0.339 0.967 0.355 1.462 0.035 0.493 0.073 1.642 0.076 1.662 0.051 0.009 0.628 0.107 0.803 0.138 1.161 0.157 2.243 0.488 3.148 0.963 0.477 0.289 0.79 0.664 0.891 1.072 0.123 0.528-0.091 1.065-0.597 1.498 0.131 0.185 0.246 0.375 0.342 0.568 0.169 0.333 0.291 0.61 0.31 0.65 0.617 0 1.588 0.441 1.588 1.502zM13.666 18.976c-0.442-1.767-2.374-2.39-3.685-2.434-0.063-0.002-0.137-0.003-0.211-0.003-0.272 0-0.54 0.017-0.803 0.050l0.031-0.003c-2.34 0.291-3.662 1.523-3.402 3.123 0.189 0.718 0.765 1.375 1.635 1.866 0.871 0.491 1.984 0.787 3.16 0.839 0.225 0.003 0.45-0.006 0.672-0.029 2.371-0.25 2.992-1.842 2.601-3.408zM17.665 7.76c1.712-0.893 3.798-1.802 5.949-2.577l0.373-0.117s-1.767-1.267-2.301-1.36c-3.281-0.548-10.37 2.475-14.896 6.47-1.832 1.617-4.453 4.48-3.2 5.952 0.434 0.322 0.925 0.62 1.444 0.87l0.055 0.024c0.837-0.729 2.102-1.228 3.526-1.392 1.781-3.088 4.912-5.81 9.049-7.868zM24.797 21.742c0.087 0.234 0.275 0.451 0.545 0.625s0.61 0.3 0.986 0.365c0.392 0.090 0.796 0.157 1.206 0.202 5.191 0.553 10.044-1.283 11.136-1.745 0.082-0.035 0.137-0.001 0.071 0.061-0.033 0.033-0.068 0.063-0.105 0.092l-0.003 0.002c-1.337 1.066-4.932 2.302-9.609 2.301-2.040 0-4.079-0.445-4.828-1.128-1.162-1.059-0.057-2.607 1.878-2.445l0.848 0.059c3.008 0.178 6.040-0.121 8.807-0.872 2.64-0.758 3.638-1.592 3.488-2.268-0.050-0.209-0.21-0.404-0.455-0.552-0.722-0.367-1.579-0.618-2.496-0.732-0.419-0.073-0.704-0.119-1.011-0.182-0.545-0.111-0.814-0.201-0.875-0.835-0.026-0.277-0.105-1.243-0.133-1.642-0.049-0.7-0.185-1.655-1.144-2.050-0.243-0.098-0.524-0.157-0.818-0.163l-0.002-0c-0.164-0.006-0.329 0.004-0.487 0.029-0.486 0.069-0.928 0.225-1.274 0.445-0.447 0.248-0.965 0.441-1.513 0.553l-0.035 0.006c-0.419 0.089-0.9 0.141-1.393 0.141-0.137 0-0.272-0.004-0.407-0.012l0.019 0.001c-0.67-0.017-1.382-0.083-2.197-0.112l-0.477-0.017c-1.049 0.017-2.054 0.266-2.832 0.701s-1.274 1.028-1.402 1.671c-0.467 1.986 1.859 3.012 2.53 3.615 0.104 0.076 0.169 0.17 0.185 0.27-0.017 0.11-0.104 0.212-0.239 0.285-0.929 0.638-1.582 1.41-1.898 2.245-0.137 0.345-0.217 0.745-0.217 1.163 0 0.497 0.112 0.967 0.313 1.387l-0.008-0.020c0.089 0.199 0.202 0.392 0.341 0.579 1.696 2.452 6.96 3.594 12.102 2.556 0.783-0.158 1.439-0.334 2.078-0.546l-0.124 0.036c1.126-0.344 2.14-0.813 2.992-1.384 1.324-0.82 2.196-1.877 2.491-3.021 0.154-0.631-0.072-0.877-0.381-0.995-0.164-0.056-0.354-0.088-0.551-0.088-0.059 0-0.118 0.003-0.175 0.009l0.007-0.001c-0.152-0.55-0.387-1.031-0.693-1.457l0.009 0.013c-1.469 0.683-3.129 1.194-4.898 1.507-2.128 0.372-4.342 0.519-6.549 0.439-1.42-0.071-2.359-0.328-2.713 0.383 2.148 0.443 4.428 0.586 6.678 0.419 0.003-0 0.006-0 0.009-0 0.029 0 0.056 0.006 0.081 0.018l-0.001-0c0.012 0.006 0.022 0.013 0.030 0.022l0 0c0.007 0.009 0.012 0.017 0.013 0.028 0 0.002 0 0.004 0 0.006 0 0.016-0.007 0.031-0.018 0.041l-0 0c-0.015 0.015-0.035 0.027-0.056 0.033l-0.001 0s-2.638 0.757-6.826-0.044zM17.072 10.224c1.744-0.755 3.711-1.293 5.79-1.583 1.084-0.162 2.336-0.255 3.609-0.255 1.242 0 2.464 0.088 3.66 0.258l-0.137-0.016c0.082 0.012 0.135-0.076 0.061-0.102-1.172-0.382-2.523-0.613-3.923-0.638l-0.013-0c-0.013-0-0.026-0.003-0.038-0.007l0.001 0c-0.010-0.004-0.019-0.010-0.026-0.017l-0-0c-0.005-0.005-0.007-0.012-0.007-0.020 0-0.002 0-0.003 0-0.005l-0 0c0.002-0.009 0.007-0.017 0.014-0.022l0-0c0.213-0.173 0.462-0.327 0.74-0.459 0.011-0.005 0.020-0.013 0.026-0.024l0-0c0.002-0.004 0.003-0.008 0.003-0.013 0-0.006-0.002-0.011-0.005-0.016l0 0c-0.007-0.010-0.017-0.017-0.028-0.021l-0-0c-0.012-0.005-0.026-0.008-0.041-0.008-0.001 0-0.003 0-0.004 0h0c-1.681 0.103-3.298 0.456-4.708 1.028-0.012 0.005-0.026 0.008-0.040 0.008-0.001 0-0.001 0-0.002 0h0c-0.015-0-0.029-0.003-0.041-0.009l0.001 0c-0.011-0.004-0.019-0.011-0.026-0.020l-0-0c-0.003-0.005-0.005-0.010-0.005-0.016 0-0.003 0.001-0.007 0.002-0.010l-0 0c0.113-0.263 0.281-0.515 0.498-0.752 0.005-0.005 0.008-0.013 0.008-0.020 0-0.002-0-0.004-0.001-0.006l0 0c-0.003-0.011-0.010-0.020-0.019-0.025l-0-0c-0.011-0.007-0.024-0.011-0.039-0.012l-0-0c-0.003-0-0.007-0.001-0.011-0.001-0.012 0-0.023 0.002-0.033 0.005l0.001-0c-2.041 0.695-3.859 1.613-5.364 2.711-0.012 0.009-0.018 0.019-0.018 0.030s0.007 0.022 0.019 0.029c0.016 0.009 0.035 0.015 0.055 0.015 0.015 0 0.030-0.003 0.043-0.009l-0.001 0zM30.742 16.966c0.142 0.055 0.311 0.078 0.477 0.061 0.159-0.013 0.303-0.068 0.424-0.154l-0.003 0.002c0.131-0.156-0.059-0.368-0.424-0.474-0.109-0.042-0.234-0.066-0.365-0.066-0.040 0-0.080 0.002-0.119 0.007l0.005-0c-0.159 0.013-0.303 0.068-0.423 0.154l0.003-0.002c-0.131 0.156 0.059 0.368 0.424 0.473zM31.863 14.432c0.088 0.282 0.277 0.547 0.554 0.777 0.286-0.022 0.575-0.022 0.861 0 0.167-0.309 0.182-0.642 0.042-0.956-0.208-0.579-0.487-0.93-1.064-0.875-0.579 0.055-0.6 0.474-0.393 1.053zM33.092 15.764c-0.060-0.011-0.129-0.017-0.2-0.017-0.086 0-0.171 0.009-0.252 0.027l0.008-0.001c-0.136 0.027-0.255 0.085-0.354 0.167l0.001-0.001c-0.078 0.062-0.127 0.155-0.13 0.261v0c0.008 0.107 0.062 0.199 0.142 0.259l0.001 0.001c0.091 0.075 0.216 0.131 0.361 0.16s0.3 0.029 0.445 0c0.138-0.025 0.26-0.081 0.362-0.16l-0.002 0.001c0.081-0.060 0.135-0.153 0.143-0.258l0-0.001c0.021-0.1-0.022-0.202-0.12-0.284-0.112-0.086-0.251-0.142-0.402-0.154l-0.003-0z"></path>
<path fill="#000" style="fill: var(--color2, #000)" d="M23.498 15.711c-0.093-0.008-0.132-0.032-0.144-0.064-0.035-0.1 0.214-0.265 0.476-0.383 0.384-0.173 0.833-0.282 1.305-0.317 0.099-0.008 0.214-0.012 0.33-0.012 0.376 0 0.741 0.047 1.089 0.137l-0.030-0.007c0.411 0.104 0.763 0.279 1.016 0.504 0.093 0.095 0.112 0.168 0.052 0.206-0.095 0.062-0.337-0.009-0.729-0.115-0.42-0.129-0.903-0.203-1.403-0.203-0.041 0-0.081 0.001-0.121 0.001l0.006-0c-0.623 0.063-1.239 0.147-1.846 0.253zM27.413 16.208c-0.176-0.112-0.382-0.195-0.603-0.238l-0.011-0.002c-0.14-0.029-0.3-0.046-0.464-0.046-0.092 0-0.184 0.005-0.273 0.016l0.011-0.001c-0.358 0.020-0.69 0.111-0.99 0.258l0.015-0.007c-0.13 0.057-0.22 0.143-0.25 0.24 0 0.010 0.003 0.022 0.009 0.031s0.017 0.019 0.030 0.026c0.023 0.013 0.051 0.020 0.081 0.020 0.001 0 0.002 0 0.003-0h-0c0.14-0.013 0.267-0.035 0.391-0.068l-0.016 0.004c0.346-0.082 0.743-0.129 1.15-0.129 0.175 0 0.348 0.009 0.518 0.026l-0.022-0.002c0.258 0.017 0.379 0.028 0.435-0.026 0.011-0.011 0.019-0.027 0.019-0.045 0-0.003-0-0.005-0-0.007l0 0c-0.004-0.021-0.016-0.038-0.033-0.049l-0-0z"></path>
<path fill="#000" style="fill: var(--color2, #000)" d="M26.685 16.354c0.162-0.356 0.171-0.732 0.027-1.091-0.209-0.58-0.525-0.912-1.111-0.857s-0.601 0.522-0.413 1.104c0.087 0.267 0.256 0.521 0.499 0.749 0.466 0.401 0.782 0.297 0.997 0.094zM70.89 14.575c-2.831 0-4.23 1.371-4.869 2.259-0.36 0.495-0.463 0.882-0.751 0.882-0.412 0-0.112-0.336-0.452-1.091-0.443-0.99-1.77-2.050-4.601-2.050-2.974 0-4.24 1.548-4.848 2.398-0.412 0.584-0.412 0.743-0.731 0.743-0.463 0-0.082-0.464 0.124-1.003 0.412-1.066 0.093-1.885 0.093-1.885h-4.693v10.916h6.433v-5.433c0-1.072 0.73-2.43 1.975-2.43 1.441 0 1.73 0.679 1.73 1.942v5.922h6.452v-5.439c0-0.951 0.629-2.43 1.987-2.43 1.462 0 1.719 0.958 1.719 1.942v5.922h6.339v-6.423c0-2.85-1.626-4.747-5.897-4.747l-0.010 0.007zM180.004 14.575c-2.83 0-4.229 1.371-4.867 2.259-0.361 0.495-0.464 0.882-0.752 0.882-0.412 0-0.134-0.432-0.453-1.091-0.473-0.984-1.647-2.050-4.6-2.050s-4.24 1.548-4.848 2.398c-0.412 0.584-0.412 0.743-0.731 0.743-0.463 0-0.082-0.464 0.124-1.003 0.412-1.066 0.093-1.885 0.093-1.885h-4.714v10.916h6.433v-5.433c0-1.072 0.73-2.43 1.975-2.43 1.441 0 1.73 0.679 1.73 1.942v5.922h6.453v-5.439c0-0.951 0.628-2.43 1.987-2.43 1.461 0 1.719 0.958 1.719 1.942v5.922h6.339v-6.423c0-2.85-1.626-4.747-5.897-4.747l0.010 0.007zM87.769 14.575c-4.93 0-8.46 1.117-8.46 1.117v3.281s3.901-1.384 7.070-1.384c2.532 0 2.841 0.838 2.717 1.536 0 0-0.731-0.121-2.954-0.121-5.239 0-7.883 1.467-7.883 3.821 0 2.235 2.975 3.167 5.475 3.167 3.654 0 5.26-1.517 5.754-2.234 0.34-0.502 0.401-0.831 0.71-0.831 0.35 0 0.237 0.241 0.216 0.736-0.031 0.869 0.041 1.523 0.257 2.082h4.848v-5.376c0-3.357-1.924-5.801-7.76-5.801l0.010 0.007zM86.204 23.193c-1.533 0.216-2.335-0.076-2.335-0.705 0-0.863 1.44-1.206 3.498-1.206 0.906 0 1.76 0.051 1.76 0.051 0 0.368-1.296 1.624-2.933 1.859h0.010z"></path>
<path fill="#000" style="fill: var(--color2, #000)" d="M106.109 11.515h6.433v14.23h-6.433v-14.23z"></path>
<path fill="#000" style="fill: var(--color2, #000)" d="M119.622 20.286c0-0.983 1.482-1.872 4.199-1.872 2.964 0 5.341 0.876 5.877 1.079v-3.796s-1.884-1.117-6.505-1.117c-4.867 0-8.933 1.758-8.933 5.54s3.684 5.884 8.913 5.884c4.086 0 6.525-1.384 6.525-1.384v-3.605c-0.771 0.266-2.922 1.187-5.856 1.187-3.108 0-4.23-0.882-4.23-1.904l0.010-0.013zM142.707 14.575c-3.726 0-5.136 2.177-5.424 2.551s-0.422 0.597-0.659 0.59c-0.401-0.006-0.124-0.464 0.031-0.755 0.58-1.108 0.926-2.42 0.937-3.811l0-0.004c0-1.219-0.268-1.626-0.268-1.626h-5.547v14.224h6.433v-5.433c0-0.882 0.576-2.43 2.192-2.43 1.338 0 1.76 0.616 1.76 1.846v6.017h6.433v-5.782c0-2.806-0.752-5.395-5.877-5.395l-0.010 0.007zM150.683 14.841v10.903h6.433v-10.903s-1.081 0.387-3.211 0.387-3.222-0.387-3.222-0.387z"></path>
<path fill="#000" style="fill: var(--color2, #000)" d="M157.805 12.988c0 0.876-1.76 1.587-3.932 1.587s-3.932-0.711-3.932-1.587 1.761-1.587 3.932-1.587c2.172 0 3.932 0.711 3.932 1.587z"></path>
<path fill="#000" style="fill: var(--color2, #000)" d="M97.608 14.841v10.903h6.433v-10.903s-1.081 0.387-3.211 0.387c-2.131 0-3.222-0.387-3.222-0.387z"></path>
<path fill="#000" style="fill: var(--color2, #000)" d="M104.73 12.988c0 0.876-1.76 1.587-3.932 1.587s-3.932-0.711-3.932-1.587 1.76-1.587 3.932-1.587 3.932 0.711 3.932 1.587z"></path>
<path fill="#000" style="fill: var(--color2, #000)" d="M198.674 14.575c-3.304 0-4.816 1.529-5.475 2.398-0.432 0.578-0.412 0.743-0.731 0.743-0.463 0-0.082-0.464 0.124-1.003 0.412-1.066 0.093-1.885 0.093-1.885h-4.714v13.937h6.433v-4.417c0.761 0.793 2.171 1.643 4.343 1.643 4.652 0 6.988-2.424 6.988-5.706 0-3.713-2.799-5.712-7.070-5.712h0.010zM196.914 23.402c-1.472 0-2.563-1.155-2.563-2.761s1.111-2.761 2.512-2.761c1.79 0 2.552 1.009 2.552 2.761s-0.7 2.761-2.501 2.761zM73.216 9.205c0 1.403 1.821 2.43 4.138 2.43s4.138-1.021 4.138-2.43v-3.224h-2.244v3.060c0 0.755-0.823 1.263-1.904 1.263s-1.904-0.508-1.904-1.263v-3.060h-2.243v3.224h0.021zM87.491 7.269h2.676v4.247h2.243v-4.247h2.677v-1.295h-7.596v1.295zM86.039 5.974h-2.243v5.54h2.243v-5.54zM64.159 7.269h2.676v4.247h2.243v-4.247h2.676v-1.295h-7.595v1.295zM52.406 5.974h-2.243v5.54h2.243v-5.54zM62.986 8.297c0-1.403-1.822-2.43-4.148-2.43s-4.138 1.021-4.138 2.43v3.224h2.243v-3.059c0-0.756 0.823-1.263 1.904-1.263s1.904 0.507 1.904 1.263v3.059h2.243v-3.224h-0.010z"></path>
</symbol>
<symbol id="icon-galochka" viewBox="0 0 35 32">
<path fill="#007c89" style="fill: var(--color1, #007c89)" d="M17.455 32l-17.455-27.932 2.543-4.068 14.912 23.863 14.913-23.863 2.543 4.068-17.455 27.932z"></path>
</symbol>

<symbol id="icon-facebook2" viewBox="0 0 32 32">
<path d="M29 0h-26c-1.65 0-3 1.35-3 3v26c0 1.65 1.35 3 3 3h13v-14h-4v-4h4v-2c0-3.306 2.694-6 6-6h4v4h-4c-1.1 0-2 0.9-2 2v2h6l-1 4h-5v14h9c1.65 0 3-1.35 3-3v-26c0-1.65-1.35-3-3-3z"></path>
</symbol>
<symbol id="icon-instagram" viewBox="0 0 32 32">
<path d="M16 2.881c4.275 0 4.781 0.019 6.462 0.094 1.563 0.069 2.406 0.331 2.969 0.55 0.744 0.288 1.281 0.638 1.837 1.194 0.563 0.563 0.906 1.094 1.2 1.838 0.219 0.563 0.481 1.412 0.55 2.969 0.075 1.688 0.094 2.194 0.094 6.463s-0.019 4.781-0.094 6.463c-0.069 1.563-0.331 2.406-0.55 2.969-0.288 0.744-0.637 1.281-1.194 1.837-0.563 0.563-1.094 0.906-1.837 1.2-0.563 0.219-1.413 0.481-2.969 0.55-1.688 0.075-2.194 0.094-6.463 0.094s-4.781-0.019-6.463-0.094c-1.563-0.069-2.406-0.331-2.969-0.55-0.744-0.288-1.281-0.637-1.838-1.194-0.563-0.563-0.906-1.094-1.2-1.837-0.219-0.563-0.481-1.413-0.55-2.969-0.075-1.688-0.094-2.194-0.094-6.463s0.019-4.781 0.094-6.463c0.069-1.563 0.331-2.406 0.55-2.969 0.288-0.744 0.638-1.281 1.194-1.838 0.563-0.563 1.094-0.906 1.838-1.2 0.563-0.219 1.412-0.481 2.969-0.55 1.681-0.075 2.188-0.094 6.463-0.094zM16 0c-4.344 0-4.887 0.019-6.594 0.094-1.7 0.075-2.869 0.35-3.881 0.744-1.056 0.412-1.95 0.956-2.837 1.85-0.894 0.888-1.438 1.781-1.85 2.831-0.394 1.019-0.669 2.181-0.744 3.881-0.075 1.713-0.094 2.256-0.094 6.6s0.019 4.887 0.094 6.594c0.075 1.7 0.35 2.869 0.744 3.881 0.413 1.056 0.956 1.95 1.85 2.837 0.887 0.887 1.781 1.438 2.831 1.844 1.019 0.394 2.181 0.669 3.881 0.744 1.706 0.075 2.25 0.094 6.594 0.094s4.888-0.019 6.594-0.094c1.7-0.075 2.869-0.35 3.881-0.744 1.050-0.406 1.944-0.956 2.831-1.844s1.438-1.781 1.844-2.831c0.394-1.019 0.669-2.181 0.744-3.881 0.075-1.706 0.094-2.25 0.094-6.594s-0.019-4.887-0.094-6.594c-0.075-1.7-0.35-2.869-0.744-3.881-0.394-1.063-0.938-1.956-1.831-2.844-0.887-0.887-1.781-1.438-2.831-1.844-1.019-0.394-2.181-0.669-3.881-0.744-1.712-0.081-2.256-0.1-6.6-0.1v0z"></path>
<path d="M16 7.781c-4.537 0-8.219 3.681-8.219 8.219s3.681 8.219 8.219 8.219 8.219-3.681 8.219-8.219c0-4.537-3.681-8.219-8.219-8.219zM16 21.331c-2.944 0-5.331-2.387-5.331-5.331s2.387-5.331 5.331-5.331c2.944 0 5.331 2.387 5.331 5.331s-2.387 5.331-5.331 5.331z"></path>
<path d="M26.462 7.456c0 1.060-0.859 1.919-1.919 1.919s-1.919-0.859-1.919-1.919c0-1.060 0.859-1.919 1.919-1.919s1.919 0.859 1.919 1.919z"></path>
</symbol>
<symbol id="icon-twitter" viewBox="0 0 32 32">
<path d="M32 7.075c-1.175 0.525-2.444 0.875-3.769 1.031 1.356-0.813 2.394-2.1 2.887-3.631-1.269 0.75-2.675 1.3-4.169 1.594-1.2-1.275-2.906-2.069-4.794-2.069-3.625 0-6.563 2.938-6.563 6.563 0 0.512 0.056 1.012 0.169 1.494-5.456-0.275-10.294-2.888-13.531-6.862-0.563 0.969-0.887 2.1-0.887 3.3 0 2.275 1.156 4.287 2.919 5.463-1.075-0.031-2.087-0.331-2.975-0.819 0 0.025 0 0.056 0 0.081 0 3.181 2.263 5.838 5.269 6.437-0.55 0.15-1.131 0.231-1.731 0.231-0.425 0-0.831-0.044-1.237-0.119 0.838 2.606 3.263 4.506 6.131 4.563-2.25 1.762-5.075 2.813-8.156 2.813-0.531 0-1.050-0.031-1.569-0.094 2.913 1.869 6.362 2.95 10.069 2.95 12.075 0 18.681-10.006 18.681-18.681 0-0.287-0.006-0.569-0.019-0.85 1.281-0.919 2.394-2.075 3.275-3.394z"></path>
</symbol>
<symbol id="icon-youtube" viewBox="0 0 32 32">
<path d="M31.681 9.6c0 0-0.313-2.206-1.275-3.175-1.219-1.275-2.581-1.281-3.206-1.356-4.475-0.325-11.194-0.325-11.194-0.325h-0.012c0 0-6.719 0-11.194 0.325-0.625 0.075-1.987 0.081-3.206 1.356-0.963 0.969-1.269 3.175-1.269 3.175s-0.319 2.588-0.319 5.181v2.425c0 2.587 0.319 5.181 0.319 5.181s0.313 2.206 1.269 3.175c1.219 1.275 2.819 1.231 3.531 1.369 2.563 0.244 10.881 0.319 10.881 0.319s6.725-0.012 11.2-0.331c0.625-0.075 1.988-0.081 3.206-1.356 0.962-0.969 1.275-3.175 1.275-3.175s0.319-2.587 0.319-5.181v-2.425c-0.006-2.588-0.325-5.181-0.325-5.181zM12.694 20.15v-8.994l8.644 4.513-8.644 4.481z"></path>
</symbol>
<symbol id="icon-linkedin" viewBox="0 0 32 32">
<path d="M29 0h-26c-1.65 0-3 1.35-3 3v26c0 1.65 1.35 3 3 3h26c1.65 0 3-1.35 3-3v-26c0-1.65-1.35-3-3-3zM12 26h-4v-14h4v14zM10 10c-1.106 0-2-0.894-2-2s0.894-2 2-2c1.106 0 2 0.894 2 2s-0.894 2-2 2zM26 26h-4v-8c0-1.106-0.894-2-2-2s-2 0.894-2 2v8h-4v-14h4v2.481c0.825-1.131 2.087-2.481 3.5-2.481 2.488 0 4.5 2.238 4.5 5v9z"></path>
</symbol>
<symbol id="icon-pinterest" viewBox="0 0 32 32">
<path d="M16 2.138c-7.656 0-13.863 6.206-13.863 13.863 0 5.875 3.656 10.887 8.813 12.906-0.119-1.094-0.231-2.781 0.050-3.975 0.25-1.081 1.625-6.887 1.625-6.887s-0.412-0.831-0.412-2.056c0-1.925 1.119-3.369 2.506-3.369 1.181 0 1.756 0.887 1.756 1.95 0 1.188-0.756 2.969-1.15 4.613-0.331 1.381 0.688 2.506 2.050 2.506 2.462 0 4.356-2.6 4.356-6.35 0-3.319-2.387-5.638-5.787-5.638-3.944 0-6.256 2.956-6.256 6.019 0 1.194 0.456 2.469 1.031 3.163 0.113 0.137 0.131 0.256 0.094 0.4-0.106 0.438-0.338 1.381-0.387 1.575-0.063 0.256-0.2 0.306-0.463 0.188-1.731-0.806-2.813-3.337-2.813-5.369 0-4.375 3.175-8.387 9.156-8.387 4.806 0 8.544 3.425 8.544 8.006 0 4.775-3.012 8.625-7.194 8.625-1.406 0-2.725-0.731-3.175-1.594 0 0-0.694 2.644-0.863 3.294-0.313 1.206-1.156 2.712-1.725 3.631 1.3 0.4 2.675 0.619 4.106 0.619 7.656 0 13.863-6.206 13.863-13.863 0-7.662-6.206-13.869-13.863-13.869z"></path>
</symbol>
</defs>
</svg>
